HIERARCHY
ROOT Hips
{
	OFFSET -14.64140 90.27770 -84.91600
	CHANNELS 6 Xposition Yposition Zposition Zrotation Xrotation Yrotation
	JOINT Spine
	{
		OFFSET 0.00000 13.20850 -1.60436
		CHANNELS 3 Zrotation Xrotation Yrotation
		JOINT Spine1
		{
			OFFSET 0.00000 8.61716 0.00000
			CHANNELS 3 Zrotation Xrotation Yrotation
			JOINT Spine2
			{
				OFFSET 0.00000 8.61717 0.00000
				CHANNELS 3 Zrotation Xrotation Yrotation
				JOINT Spine3
				{
					OFFSET 0.00000 8.61717 0.00000
					CHANNELS 3 Zrotation Xrotation Yrotation
					JOINT Neck
					{
						OFFSET 0.00000 11.07920 1.10792
						CHANNELS 3 Zrotation Xrotation Yrotation
						JOINT Neck1
						{
							OFFSET 0.00000 7.08032 0.00000
							CHANNELS 3 Zrotation Xrotation Yrotation
							JOINT Head
							{
								OFFSET 0.00000 7.08031 0.00000
								CHANNELS 3 Zrotation Xrotation Yrotation
								End site
								{
									OFFSET 0.00000 0.00000 0.00000
								}
							}
						}
					}
					JOINT RightShoulder
					{
						OFFSET -0.01000 7.91373 5.19711
						CHANNELS 3 Zrotation Xrotation Yrotation
						JOINT RightArm
						{
							OFFSET -18.41580 0.00000 0.00000
							CHANNELS 3 Zrotation Xrotation Yrotation
							JOINT RightForeArm
							{
								OFFSET -29.11090 0.00000 0.00000
								CHANNELS 3 Zrotation Xrotation Yrotation
								JOINT RightHand
								{
									OFFSET -24.65040 0.00000 0.00000
									CHANNELS 3 Zrotation Xrotation Yrotation
									JOINT RightHandThumb1
									{
										OFFSET -5.35114 -0.85590 3.97906
										CHANNELS 3 Zrotation Xrotation Yrotation
										JOINT RightHandThumb2
										{
											OFFSET -4.52789 0.00000 0.00000
											CHANNELS 3 Zrotation Xrotation Yrotation
											JOINT RightHandThumb3
											{
												OFFSET -2.46976 0.00000 0.00000
												CHANNELS 3 Zrotation Xrotation Yrotation
												End site
												{
													OFFSET 0.00000 0.00000 0.00000
												}
											}
										}
									}
									JOINT RightHandIndex1
									{
										OFFSET -14.26970 0.00000 2.88139
										CHANNELS 3 Zrotation Xrotation Yrotation
										JOINT RightHandIndex2
										{
											OFFSET -5.48836 0.00000 0.00000
											CHANNELS 3 Zrotation Xrotation Yrotation
											JOINT RightHandIndex3
											{
												OFFSET -3.01859 0.00000 0.00000
												CHANNELS 3 Zrotation Xrotation Yrotation
												End site
												{
													OFFSET 0.00000 0.00000 0.00000
												}
											}
										}
									}
									JOINT RightHandMiddle1
									{
										OFFSET -14.26970 0.00000 -0.09147
										CHANNELS 3 Zrotation Xrotation Yrotation
										JOINT RightHandMiddle2
										{
											OFFSET -6.17441 0.00000 0.00000
											CHANNELS 3 Zrotation Xrotation Yrotation
											JOINT RightHandMiddle3
											{
												OFFSET -3.56743 0.00000 0.00000
												CHANNELS 3 Zrotation Xrotation Yrotation
												End site
												{
													OFFSET 0.00000 0.00000 0.00000
												}
											}
										}
									}
									JOINT RightHandRing1
									{
										OFFSET -12.69180 0.00000 -3.06433
										CHANNELS 3 Zrotation Xrotation Yrotation
										JOINT RightHandRing2
										{
											OFFSET -5.62556 0.00000 0.00000
											CHANNELS 3 Zrotation Xrotation Yrotation
											JOINT RightHandRing3
											{
												OFFSET -3.56744 0.00000 0.00000
												CHANNELS 3 Zrotation Xrotation Yrotation
												End site
												{
													OFFSET 0.00000 0.00000 0.00000
												}
											}
										}
									}
									JOINT RightHandPinky1
									{
										OFFSET -11.11390 0.00000 -6.03719
										CHANNELS 3 Zrotation Xrotation Yrotation
										JOINT RightHandPinky2
										{
											OFFSET -4.52789 0.00000 0.00000
											CHANNELS 3 Zrotation Xrotation Yrotation
											JOINT RightHandPinky3
											{
												OFFSET -2.46976 0.00000 0.00000
												CHANNELS 3 Zrotation Xrotation Yrotation
												End site
												{
													OFFSET 0.00000 0.00000 0.00000
												}
											}
										}
									}
								}
							}
						}
					}
					JOINT LeftShoulder
					{
						OFFSET 0.01000 7.91373 5.19711
						CHANNELS 3 Zrotation Xrotation Yrotation
						JOINT LeftArm
						{
							OFFSET 18.41580 0.00000 0.00000
							CHANNELS 3 Zrotation Xrotation Yrotation
							JOINT LeftForeArm
							{
								OFFSET 29.11090 0.00000 0.00000
								CHANNELS 3 Zrotation Xrotation Yrotation
								JOINT LeftHand
								{
									OFFSET 24.65040 0.00000 0.00000
									CHANNELS 3 Zrotation Xrotation Yrotation
									JOINT LeftHandThumb1
									{
										OFFSET 5.35114 -0.85590 3.97906
										CHANNELS 3 Zrotation Xrotation Yrotation
										JOINT LeftHandThumb2
										{
											OFFSET 4.52789 0.00000 0.00000
											CHANNELS 3 Zrotation Xrotation Yrotation
											JOINT LeftHandThumb3
											{
												OFFSET 2.46977 0.00000 0.00000
												CHANNELS 3 Zrotation Xrotation Yrotation
												End site
												{
													OFFSET 0.00000 0.00000 0.00000
												}
											}
										}
									}
									JOINT LeftHandIndex1
									{
										OFFSET 14.26970 0.00000 2.88139
										CHANNELS 3 Zrotation Xrotation Yrotation
										JOINT LeftHandIndex2
										{
											OFFSET 5.48836 0.00000 0.00000
											CHANNELS 3 Zrotation Xrotation Yrotation
											JOINT LeftHandIndex3
											{
												OFFSET 3.01859 0.00000 0.00000
												CHANNELS 3 Zrotation Xrotation Yrotation
												End site
												{
													OFFSET 0.00000 0.00000 0.00000
												}
											}
										}
									}
									JOINT LeftHandMiddle1
									{
										OFFSET 14.26970 0.00000 -0.09147
										CHANNELS 3 Zrotation Xrotation Yrotation
										JOINT LeftHandMiddle2
										{
											OFFSET 6.17440 0.00000 0.00000
											CHANNELS 3 Zrotation Xrotation Yrotation
											JOINT LeftHandMiddle3
											{
												OFFSET 3.56744 0.00000 0.00000
												CHANNELS 3 Zrotation Xrotation Yrotation
												End site
												{
													OFFSET 0.00000 0.00000 0.00000
												}
											}
										}
									}
									JOINT LeftHandRing1
									{
										OFFSET 12.69180 0.00000 -3.06433
										CHANNELS 3 Zrotation Xrotation Yrotation
										JOINT LeftHandRing2
										{
											OFFSET 5.62556 0.00000 0.00000
											CHANNELS 3 Zrotation Xrotation Yrotation
											JOINT LeftHandRing3
											{
												OFFSET 3.56744 0.00000 0.00000
												CHANNELS 3 Zrotation Xrotation Yrotation
												End site
												{
													OFFSET 0.00000 0.00000 0.00000
												}
											}
										}
									}
									JOINT LeftHandPinky1
									{
										OFFSET 11.11390 0.00000 -6.03719
										CHANNELS 3 Zrotation Xrotation Yrotation
										JOINT LeftHandPinky2
										{
											OFFSET 4.52789 0.00000 0.00000
											CHANNELS 3 Zrotation Xrotation Yrotation
											JOINT LeftHandPinky3
											{
												OFFSET 2.46976 0.00000 0.00000
												CHANNELS 3 Zrotation Xrotation Yrotation
												End site
												{
													OFFSET 0.00000 0.00000 0.00000
												}
											}
										}
									}
								}
							}
						}
					}
					JOINT pCube4
					{
						OFFSET 0.00000 10.91090 1.10792
						CHANNELS 3 Zrotation Xrotation Yrotation
						End site
						{
							OFFSET 0.00000 0.00000 0.00000
						}
					}
				}
			}
		}
	}
	JOINT RightUpLeg
	{
		OFFSET -9.98441 0.00000 0.00000
		CHANNELS 3 Zrotation Xrotation Yrotation
		JOINT RightLeg
		{
			OFFSET 0.00000 -42.11790 0.00000
			CHANNELS 3 Zrotation Xrotation Yrotation
			JOINT RightFoot
			{
				OFFSET 0.00000 -45.00020 -0.00001
				CHANNELS 3 Zrotation Xrotation Yrotation
				JOINT RightForeFoot
				{
					OFFSET 0.00000 -3.74820 0.00000
					CHANNELS 3 Zrotation Xrotation Yrotation
					JOINT RightToeBase
					{
						OFFSET 0.00000 0.06325 14.43120
						CHANNELS 3 Zrotation Xrotation Yrotation
						End site
						{
							OFFSET 0.00000 0.00000 0.00000
						}
					}
				}
			}
		}
	}
	JOINT LeftUpLeg
	{
		OFFSET 9.98441 0.00000 0.00000
		CHANNELS 3 Zrotation Xrotation Yrotation
		JOINT LeftLeg
		{
			OFFSET 0.00000 -42.11800 0.00000
			CHANNELS 3 Zrotation Xrotation Yrotation
			JOINT LeftFoot
			{
				OFFSET 0.00000 -45.00070 0.00000
				CHANNELS 3 Zrotation Xrotation Yrotation
				JOINT LeftForeFoot
				{
					OFFSET 0.00000 -3.74824 0.00000
					CHANNELS 3 Zrotation Xrotation Yrotation
					JOINT LeftToeBase
					{
						OFFSET 0.00000 0.06325 14.43110
						CHANNELS 3 Zrotation Xrotation Yrotation
						End site
						{
							OFFSET 0.00000 0.00000 0.00000
						}
					}
				}
			}
		}
	}
}
MOTION
Frames: 4
Frame Time: 0.050000
0.02241510726848035 -0.015111559897932553 -0.025387252401035773 0.0421015851795312 -0.029514808859057984 -0.04414893987720327 -2.581048769745371 0.9720774212216005 -0.7671126561672575 -0.9866873798707698 3.8184883694473832 0.4416657896702709 -1.1986054802329644 -1.6512384483789928 -0.5820773547191938 0.07588465961571492 0.49490404469231525 -0.772438756986732 0.03869990303602111 12.750995668848587 -0.2987832542492687 0.07480713060157398 -0.3497506779349889 -2.861164574230509 0.280488477698282 -15.656164172621578 -0.2001607256209331 -4.490184547900185 1.5855051499443453 -14.007431230774298 67.88063089807424 21.79425494123066 9.649759193616472 5.370384614482746 2.0853310682618673 69.94144409658176 15.522797760638337 -0.21587772818370812 -2.2454103459357473 4.517830587951611 -0.11936997831537145 -1.5456782555364732 -0.016544825073600933 -0.034690460065104685 -56.25767694160393 0.04441090378483993 -0.004089692593047102 -56.23901019407124 -38.771990987510605 0.011615063670992949 -0.0017728000880662793 -0.026101034087903506 0.044100197347803224 0.027549550676117803 0.030785527161337815 -0.005045564870099984 -0.003662123231440991 -36.64415542715315 0.017425016815956245 -0.015158715572666062 -0.010270469066999641 0.02128394533469624 -0.00023183578744978892 -0.007251263211360248 -0.04293682879411098 0.04367050189520945 -19.74152116562802 0.00728105340048137 0.004754626398089423 -0.03939084412593914 -0.005934561198542986 0.01058395410037945 -0.01950056969786403 -0.032760224821362476 -0.04607138222332945 24.03423684183818 0.04226710573344303 -0.013212518551538517 28.845912170010703 0.001274904138524584 -0.0073626650812391205 28.885101833087404 -0.038338896659418385 0.028148012935338095 5.242146217517032 1.2074823010361393 12.809979054816484 -67.617216719067 30.760465758163534 -9.570569665914197 -13.360237475509777 0.6716129972524071 -69.74997400306528 -9.057074666894827 -0.12750125075116342 1.5282279564132064 -0.46540055899039173 0.04895808741886709 -8.108603264891485 -0.004098133821787452 -0.004016322850310741 44.55464106503152 -0.013173070600442167 0.0167688673334281 44.611476776895316 12.488661492321572 0.03229091740094029 -0.039124848188536954 0.03448237837225952 -0.03266773717456096 0.02719777516793601 0.012187541423610731 -0.014805992145472808 -0.034373374630436895 11.073639296049416 0.028371715759126902 -0.011620137150071843 0.025439269646502317 -0.028955102951562835 0.02809165230014054 0.00015922385356081402 -0.030150973191663447 -0.041517319726386503 4.752957247571346 -0.01991186864231493 -0.01726046404494862 -0.04666776719828057 0.02845855892025947 0.029628155053741875 -0.017765680583421366 0.00259638771097792 0.04138855823255934 -5.602177073886858 0.024431589049230037 -0.0029089568521482394 -6.722787904147498 0.023357032438577067 0.03181370706124207 -6.69237164775126 0.010542420102865399 -0.01141857056014148 -0.026434765905592503 -0.028367023416328907 0.012047617071567212 8.071768842303847 3.4938942090607226 -19.267344776125146 0.041824171045149364 10.400781843507811 0.059675500871489345 -5.6580886021523 -15.694423912475992 3.207046294248822 0.03724183786088693 0.04271277303264072 -0.040492315324703605 -0.015494176941727278 4.7197355137034975 -0.0433794568044721 12.480499822959935 -8.239789389188257 6.852149338209755 -0.02141573286228829 46.42229549369223 0.01734254385183492 -4.288826986715149 -14.708917274662351 -3.833874560946341 -0.03924047903524734 0.017421745073499365 0.029659730485078507 -0.011266260292630307 -10.748286353200218 -0.03402098447023593 
0.02355155564283765 -0.03892824971600197 -0.03482656960497133 0.01872729796861927 0.011532236787120776 0.027990862304749915 -2.730380727853261 1.0276582583170755 -0.7791423592291199 -1.0568332731952135 3.772871881293218 0.4072749459188663 -1.249323698792575 -1.6797483270311717 -0.5614269353912121 0.07791485355950048 0.4939786297973946 -0.7290901439939048 -0.054001649191280296 12.6247668007106 -0.2762369225193948 0.08938730029894056 -0.3398582764768994 -2.6292433392500514 0.30049568432567253 -15.64256093116272 -0.2264209793394249 -4.45270134699526 1.62131972272371 -14.001659513161139 67.63606762654146 21.78949646374117 9.439826593259617 4.018004459720731 1.8608578369785653 71.20082785311538 15.851728913830168 -0.31245898855248944 -2.4453396307969903 4.5123300448726225 -0.10297719826903609 -1.5715057153413805 0.03268781843103242 -0.016818940355717897 -56.28374365694876 -0.015667037944073387 0.007619248271387711 -56.22184282382633 -38.784177066603775 0.015887354279550563 -0.009303766273764448 0.04012477437241514 0.005539257814859165 -0.041592551895658476 -0.03995843548353556 0.02399999329530935 0.033076730213153244 -36.69057429004742 -0.011532056105881577 -0.0002211319032717867 -0.0037145458131148607 -0.047600273961226375 -0.02704278657716098 0.019756013060507262 -0.025362780993519535 -0.04889097639620096 -19.740546284041613 0.0020280025868377803 -0.018194557910839296 0.045828027177588285 -0.04141937807519256 0.027024448630809696 0.03426306882582305 -0.036646119934282344 -0.03389107306640167 24.05504534116782 0.0017503556046220038 -0.011862918792390653 28.90851202017109 -0.005027287602987709 -0.003735976146506509 28.826795542256065 0.03117531961756145 -0.04309637954224011 5.262227250813981 1.2466140898575635 12.745792403907485 -67.51156607155781 30.66531861021435 -9.586234945255065 -11.858060445652773 0.0001548241070106829 -69.72311284008181 -9.11419869190866 0.02218162994148408 1.491864036119406 -0.4446739808539772 0.09914664136369628 -8.150854241734907 0.004285500254679278 -0.03844687077105298 44.562812066962266 -0.032154510643064266 0.019997223383331184 44.6100166399353 12.423454233378477 -0.028358709883167937 0.016160004363254814 -0.01688232274096802 -0.00926144310024167 -0.0015684957889479253 -0.007303638083074346 -0.043563355535092205 -0.015307243310346129 11.09976128609644 0.03708813948392767 0.045300471894283496 0.018133176934402362 0.033716053701729455 -0.03360995148581004 -0.04036263959627231 0.007385656412229021 0.048827831394434355 4.7704188449988045 0.026190496301779706 -0.0290762633731769 0.02456752472263574 0.02509265792111135 -0.013351897340391909 0.03741411338434857 -0.049228686199300986 0.03904965283493412 -5.604513248919607 -0.042538116959768925 0.01837492965291398 -6.7523325790850635 -0.01042874812103915 0.008226562714968553 -6.739924387291927 -0.02681321045203462 -0.011877781279226788 -0.02605367707927056 0.01241021272139863 0.032127366995600794 8.06551710988659 3.4917433431104348 -19.196834691070322 -0.014717326774775283 10.42826135768309 -0.03456705301665934 -5.618125999512157 -15.681925505077153 3.171791876642889 0.0256283823370923 0.020586751681038608 0.03743505225547716 -0.014058448643138767 4.727344037379482 0.024967755469993257 12.463950654134079 -8.230578643898333 6.90084762688912 -0.016937719453011566 46.4066179210169 -0.011325241274819337 -4.354726782448809 -14.755385494286378 -3.857567061223199 -0.020742915496626053 -0.017012799677496356 0.001636072827514271 -0.0031419385803053423 -10.738028903059602 -0.005287633362200713 
-0.03695058170216137 0.034178459535010544 -0.01065602475032446 0.017686848795875183 0.001342032832254449 0.04694748267439286 -2.9289908551549115 0.9155713712580051 -0.7394831949247505 -1.041509781740294 3.747695099829685 0.38913028865317956 -1.2122993973656584 -1.774071850193817 -0.5570868594201229 -0.05783336206248328 0.474944118715322 -0.7809298208943098 -0.05073160370491902 12.679395371111674 -0.0573768325866269 0.07420744475700847 -0.31502960477012204 -2.251839942051142 0.28827983093048654 -15.589125677385317 -0.22829832967096686 -4.5667827069847835 1.6717170774515877 -13.9376414031386 67.36770857985529 21.956186042522933 9.358043703266741 2.1144640675121797 1.5072588373989007 71.88841135661835 16.09128166441056 -0.28377679690476343 -2.5535355825549813 4.568789043154363 -0.1539788919879015 -1.5978373312891352 -0.014285213793851675 0.04029814503977359 -56.23243979827703 0.025426291264300314 0.02940591935369067 -56.24557224790454 -38.758552091967 0.04542750419231421 0.014113262594829572 -0.00232471733747394 0.010204041852678095 0.004177815639690363 0.014776288136240896 -0.015249139569016275 0.04277207999323274 -36.692516832688625 -0.04556365293813166 -0.027890448693902583 0.010498628344409682 -0.002608564090353286 0.020403364082958557 0.028934393886401382 0.02120288172155843 -0.0032649869823452044 -19.80167564523558 0.020043103243157598 -0.01721618877494709 0.01310093694737635 -0.006308702708976627 0.02013081594025876 -0.012220116895886137 -0.004530682658987085 -0.012578491178798583 24.04939444535814 -0.025352886820877628 0.007311218557166946 28.902697038108304 -0.0337234335805549 0.002530629925908508 28.882347510448103 0.02237455759715677 -0.0164399911511137 5.313843515713063 1.2878516638407085 12.859182366430215 -67.50556135530378 30.51048759456347 -9.46026352007838 -9.778164319738217 -0.9347934879757395 -68.60724582343651 -9.313282035290587 0.2114626213378987 1.4007988896365908 -0.4507940262271157 0.047531484037727625 -8.093392601639543 -0.013999013446099523 -0.01819451790517233 44.52664014735629 -0.024825041813355847 0.011878761248533674 44.592969306088484 12.453673072766989 0.008853543547319705 0.02487815076889199 0.012324542590292536 -0.03939092435519504 0.002424038891342042 -0.001641093605240701 -0.04642103171140783 -0.035645395093492405 11.082196069113033 -0.017019306182064806 -0.04024450610725319 0.024216288157417627 -0.0016525540725710146 0.028484359165449512 0.025788828361670096 0.010683844297707603 0.00528038864756311 4.747628491548656 0.014063508619797665 -0.044285081883695745 0.030718023977479907 -0.03750453453453263 -0.00882431459720901 -0.043898545175804785 -0.021467857058695448 0.017038588067055053 -5.574594177724011 -0.027532529564628393 -0.004194968549459039 -6.743521122557697 -0.02719861709628636 0.005148167266092241 -6.733919013132224 -0.02017114594871805 -0.003441653101908484 0.021360190940495224 -0.044796348391146615 -0.012238353488769659 8.032779615811123 3.5050217868586278 -19.259990659044647 0.0005405710192655067 10.364237975898755 0.0004954490536191181 -5.595867405387579 -15.699144008767123 3.1838099292679276 -0.032398406172911634 -0.0043938218111372615 0.049696452145628255 -0.003349443501474302 4.653422244815891 0.007119953186885073 12.480303007840968 -8.283509714934166 6.91875127376429 0.008670152433501947 46.33928816019152 0.017108020451434176 -4.360485692551379 -14.72004885070709 -3.852020510069363 0.012527518786249178 0.033322079695497164 -0.00038587174241381167 -0.027921031140012553 -10.782725796740834 -0.036236143560720885 
-0.040098336065970464 0.042967811632949826 -0.03255369858914788 -0.02729159028275297 0.03929327144675162 0.0071084047564931715 -3.0465267469457533 0.8697173242415502 -0.756511049261121 -1.035498889514072 3.7968278125784845 0.4277875947437287 -1.2819535191325464 -1.7263637122895175 -0.4383305779841191 -0.11674073712436894 0.46111557465845837 -0.7430461713696519 -0.08103008550404639 12.626300755773741 0.109369305963768 0.11362146750598309 -0.3314996987513205 -1.9595814118737125 0.29074297620096556 -15.459781201303164 -0.13920130136563352 -4.666469245338143 1.7504453038183116 -13.901333511208554 67.0289772095724 22.172649920851267 9.453130845628618 0.6185625067942248 1.3152124819949669 71.7575987178123 16.665810375585206 -0.3584760141962327 -2.7167805257751043 4.527256315483287 -0.10215242273087698 -1.5660162762885865 0.031025640865911325 0.029769335372575853 -56.18922144878277 0.009209230250001716 0.021098225739208547 -56.19689201933318 -38.75527385981517 0.021340854798189906 0.029948228654280165 -0.0006290926263733782 0.0025089329365312342 0.03510571607113638 -0.043645100291963806 -0.03497270019349279 -0.035136239130734305 -36.71903243080908 0.025649978024900384 -0.02239604580577141 -0.023487540971787225 -0.007137436157372604 -0.034051786257418414 0.0393833598621545 0.0013467037218805342 0.0068535860266763175 -19.79488560203388 0.04482278469080955 -0.013805873123018387 -0.032719473210403194 0.01414158470577247 0.00031729641825277216 -0.0029425747505076255 -0.03445027725230545 0.03234772260499247 24.09021108565026 0.030031175656667124 0.005821434421176462 28.878496780683626 -0.0035525467553788746 0.016389524008130138 28.887484726898155 -0.026071036729815925 -0.039071303325560934 5.342144078465685 1.329704279817306 12.893785155217184 -67.4370389588287 30.123633399657653 -9.11965641836559 -7.858562307031618 -1.8396855876608875 -66.65731116352273 -9.478561453663461 0.5625646967631467 1.323689089769172 -0.46165449467544184 0.02526053792445542 -8.094415590313458 -0.017841959622532797 0.01143337132939424 44.54946180337133 0.0005661176735958304 -0.01168697874564966 44.53044191670179 12.466022401921737 -0.02516576111786728 0.010711787411349444 0.027560655872311414 -0.03604929576913368 -0.010914940776630742 -0.02981619246980348 -0.03352025402638751 0.03499671731749839 11.103865070747103 -0.01723625069152866 0.03036898310078284 0.01575021410433039 0.040335942857657466 -0.04924903214704704 -0.0013012133516816396 -0.0005534134283285994 -0.01349589046855262 4.802715306645271 -0.010287084597174062 -0.013067499560091787 0.042173841408357865 0.005810278014670216 -0.025204474824145295 0.01668582399799037 0.005831487524401615 0.021341684569014904 -5.555708230621484 0.02286960952234503 0.019311084328310302 -6.678490747171859 -0.010543541086956328 -0.006086305062402186 -6.67225663664367 0.024602827420801946 0.045533892338412915 0.0017235386080225927 -0.013477409505534976 -0.01882083023581171 8.07950333028916 3.501648389460412 -19.20459056515268 -0.04999356948247998 10.361095963342265 0.050996966805912106 -5.574766220866795 -15.645995415471212 3.1733104965864825 -0.04988060092849971 -0.04205374174498889 -0.028133028808002194 -0.025774963698388886 4.7181365888363525 -0.018666220012986928 12.448171664989799 -8.273197629399672 6.885072259178982 -0.030124857034082606 46.36099058582329 0.029875293946374896 -4.366796681332384 -14.700848269831297 -3.8593598792734505 -0.0264136051255311 -0.04634042921424998 0.046485095698088695 0.027801193362208168 -10.72887035889697 -0.015612971476502494 
